<svg width="31" height="32" viewBox="0 0 31 32" fill="none" xmlns="http://www.w3.org/2000/svg">
<path d="M9.66667 25H5.53216C4.84005 25 4.35721 24.3139 4.59087 23.6624L6.10139 19.4509C6.24112 19.0613 6.12286 18.6293 5.8288 18.3381C4.07809 16.604 3 14.2372 3 11.6279C3 6.31056 7.47715 2 13 2C18.5228 2 23 6.31056 23 11.6279C23 14.2578 21.9048 16.6415 20.1296 18.3791C19.855 18.6479 19.7301 19.0402 19.8299 19.4112L20.9945 23.7402C21.1654 24.3756 20.6867 25 20.0288 25H16.3333M9.66667 25L10.7778 21.2558M9.66667 25H16.3333M16.3333 25L15.2222 21.2558M9.66667 9.48837V13.2326M16.3333 9.48837V13.2326" stroke="black" stroke-width="2.5" stroke-linecap="round"/>
<path d="M17.2007 26V19C17.2007 18.4477 17.6484 18 18.2007 18H26.2007C26.753 18 27.2007 18.4477 27.2007 19V26" stroke="white" stroke-width="7" stroke-linecap="round"/>
<path d="M24.044 23.0811C25.2281 22.6774 26.4499 22.6614 27.4787 22.9964C28.5079 23.3317 29.3894 24.0399 29.75 25.0976C30.1106 26.1552 29.8454 27.2544 29.2354 28.1486C28.6255 29.0424 27.6484 29.7761 26.4643 30.1798C25.2802 30.5835 24.0583 30.5995 23.0295 30.2645C22.0003 29.9292 21.1189 29.221 20.7582 28.1633C20.3976 27.1057 20.6629 26.0065 21.2729 25.1123C21.8828 24.2185 22.8599 23.4848 24.044 23.0811Z" fill="black" stroke="white" stroke-width="1.5"/>
<path d="M13.844 23.0811C15.0281 22.6774 16.2499 22.6614 17.2788 22.9964C18.308 23.3317 19.1894 24.0399 19.55 25.0976C19.9106 26.1552 19.6454 27.2544 19.0354 28.1486C18.4255 29.0424 17.4484 29.7761 16.2643 30.1798C15.0802 30.5835 13.8584 30.5995 12.8295 30.2645C11.8004 29.9292 10.9189 29.221 10.5583 28.1633C10.1977 27.1057 10.4629 26.0065 11.0729 25.1123C11.6828 24.2185 12.6599 23.4848 13.844 23.0811Z" fill="black" stroke="white" stroke-width="1.5"/>
<rect x="15" y="17" width="12" height="10" fill="white"/>
<path d="M17.2007 26V19C17.2007 18.4477 17.6484 18 18.2007 18H26.2007C26.753 18 27.2007 18.4477 27.2007 19V26" stroke="black" stroke-width="4" stroke-linecap="round"/>
<path d="M24.4473 24.2642C25.4002 23.9393 26.3437 23.9414 27.0916 24.185C27.8393 24.4286 28.3617 24.8992 28.5669 25.501C28.772 26.1027 28.646 26.7945 28.2028 27.4441C27.7594 28.0938 27.0137 28.6718 26.0609 28.9967C25.108 29.3216 24.1646 29.3195 23.4167 29.0759C22.6689 28.8323 22.1465 28.3617 21.9414 27.7599C21.7362 27.1582 21.8623 26.4664 22.3055 25.8168C22.7488 25.1671 23.4945 24.5891 24.4473 24.2642Z" fill="black" stroke="black"/>
<path d="M14.4473 24.2642C15.4002 23.9393 16.3437 23.9414 17.0916 24.185C17.8393 24.4286 18.3617 24.8992 18.5669 25.501C18.772 26.1027 18.646 26.7945 18.2028 27.4441C17.7594 28.0938 17.0137 28.6718 16.0609 28.9967C15.108 29.3216 14.1646 29.3195 13.4167 29.0759C12.6689 28.8323 12.1465 28.3617 11.9414 27.7599C11.7362 27.1582 11.8623 26.4664 12.3055 25.8168C12.7488 25.1671 13.4945 24.5891 14.4473 24.2642Z" fill="black" stroke="black"/>
</svg>
