<svg width="34" height="34" viewBox="0 0 34 34" fill="none" xmlns="http://www.w3.org/2000/svg">
<path d="M11.1667 26.5H7.03216C6.34005 26.5 5.85721 25.8139 6.09087 25.1624L7.60139 20.9509C7.74112 20.5613 7.62286 20.1293 7.3288 19.8381C5.57809 18.104 4.5 15.7372 4.5 13.1279C4.5 7.81056 8.97715 3.5 14.5 3.5C20.0228 3.5 24.5 7.81056 24.5 13.1279C24.5 15.7578 23.4048 18.1415 21.6296 19.8791C21.355 20.1479 21.2301 20.5402 21.3299 20.9112L22.4945 25.2402C22.6654 25.8756 22.1867 26.5 21.5288 26.5H17.8333M11.1667 26.5L12.2778 22.7558M11.1667 26.5H17.8333M17.8333 26.5L16.7222 22.7558M11.1667 10.9884V14.7326M17.8333 10.9884V14.7326" stroke="black" stroke-width="2.5" stroke-linecap="round"/>
<rect x="16.5" y="18.5" width="12" height="10" fill="white"/>
<path d="M18.7007 27.5V20.5C18.7007 19.9477 19.1484 19.5 19.7007 19.5H27.7007C28.253 19.5 28.7007 19.9477 28.7007 20.5V27.5" stroke="white" stroke-width="7" stroke-linecap="round"/>
<path d="M25.544 24.5811C26.7281 24.1774 27.9499 24.1614 28.9787 24.4964C30.0079 24.8317 30.8894 25.5399 31.25 26.5976C31.6106 27.6552 31.3454 28.7544 30.7354 29.6486C30.1255 30.5424 29.1484 31.2761 27.9643 31.6798C26.7802 32.0835 25.5583 32.0995 24.5295 31.7645C23.5003 31.4292 22.6189 30.721 22.2582 29.6633C21.8976 28.6057 22.1629 27.5065 22.7729 26.6123C23.3828 25.7185 24.3599 24.9848 25.544 24.5811Z" fill="black" stroke="white" stroke-width="1.5"/>
<path d="M15.344 24.5811C16.5281 24.1774 17.7499 24.1614 18.7788 24.4964C19.808 24.8317 20.6894 25.5399 21.05 26.5976C21.4106 27.6552 21.1454 28.7544 20.5354 29.6486C19.9255 30.5424 18.9484 31.2761 17.7643 31.6798C16.5802 32.0835 15.3584 32.0995 14.3295 31.7645C13.3004 31.4292 12.4189 30.721 12.0583 29.6633C11.6977 28.6057 11.9629 27.5065 12.5729 26.6123C13.1828 25.7185 14.1599 24.9848 15.344 24.5811Z" fill="black" stroke="white" stroke-width="1.5"/>
<path d="M18.7007 27.5V20.5C18.7007 19.9477 19.1484 19.5 19.7007 19.5H27.7007C28.253 19.5 28.7007 19.9477 28.7007 20.5V27.5" stroke="black" stroke-width="4" stroke-linecap="round"/>
<path d="M25.9473 25.7642C26.9002 25.4393 27.8437 25.4414 28.5916 25.685C29.3393 25.9286 29.8617 26.3992 30.0669 27.001C30.272 27.6027 30.146 28.2945 29.7028 28.9441C29.2594 29.5938 28.5137 30.1718 27.5609 30.4967C26.608 30.8216 25.6646 30.8195 24.9167 30.5759C24.1689 30.3323 23.6465 29.8617 23.4414 29.2599C23.2362 28.6582 23.3623 27.9664 23.8055 27.3168C24.2488 26.6671 24.9945 26.0891 25.9473 25.7642Z" fill="black" stroke="black"/>
<path d="M15.9473 25.7642C16.9002 25.4393 17.8437 25.4414 18.5916 25.685C19.3393 25.9286 19.8617 26.3992 20.0669 27.001C20.272 27.6027 20.146 28.2945 19.7028 28.9441C19.2594 29.5938 18.5137 30.1718 17.5609 30.4967C16.608 30.8216 15.6646 30.8195 14.9167 30.5759C14.1689 30.3323 13.6465 29.8617 13.4414 29.2599C13.2362 28.6582 13.3623 27.9664 13.8055 27.3168C14.2488 26.6671 14.9945 26.0891 15.9473 25.7642Z" fill="black" stroke="black"/>
</svg>
