<svg width="31" height="32" viewBox="0 0 31 32" fill="none" xmlns="http://www.w3.org/2000/svg">
<path d="M13 2.75C7.47715 2.75 3 7.06056 3 12.3779C3 14.9872 4.07809 17.354 5.8288 19.0881C6.12286 19.3793 6.24112 19.8113 6.10139 20.2009L4.59087 24.4124C4.35721 25.0639 4.84005 25.75 5.53216 25.75H9.66667H16.3333H20.0288C20.6867 25.75 21.1654 25.1256 20.9945 24.4902L19.8299 20.1612C19.7301 19.7902 19.855 19.3979 20.1296 19.1291C21.9048 17.3915 23 15.0078 23 12.3779C23 7.06056 18.5228 2.75 13 2.75Z" fill="white"/>
<path d="M9.66667 25.75H5.53216C4.84005 25.75 4.35721 25.0639 4.59087 24.4124L6.10139 20.2009C6.24112 19.8113 6.12286 19.3793 5.8288 19.0881C4.07809 17.354 3 14.9872 3 12.3779C3 7.06056 7.47715 2.75 13 2.75C18.5228 2.75 23 7.06056 23 12.3779C23 15.0078 21.9048 17.3915 20.1296 19.1291C19.855 19.3979 19.7301 19.7902 19.8299 20.1612L20.9945 24.4902C21.1654 25.1256 20.6867 25.75 20.0288 25.75H16.3333M9.66667 25.75L10.7778 22.0058M9.66667 25.75H16.3333M16.3333 25.75L15.2222 22.0058M9.66667 10.2384V13.9826M16.3333 10.2384V13.9826" stroke="white" stroke-width="5.5" stroke-linecap="round"/>
<path d="M9.66667 25.75H5.53216C4.84005 25.75 4.35721 25.0639 4.59087 24.4124L6.10139 20.2009C6.24112 19.8113 6.12286 19.3793 5.8288 19.0881C4.07809 17.354 3 14.9872 3 12.3779C3 7.06056 7.47715 2.75 13 2.75C18.5228 2.75 23 7.06056 23 12.3779C23 15.0078 21.9048 17.3915 20.1296 19.1291C19.855 19.3979 19.7301 19.7902 19.8299 20.1612L20.9945 24.4902C21.1654 25.1256 20.6867 25.75 20.0288 25.75H16.3333M9.66667 25.75L10.7778 22.0058M9.66667 25.75H16.3333M16.3333 25.75L15.2222 22.0058M9.66667 10.2384V13.9826M16.3333 10.2384V13.9826" stroke="black" stroke-width="2.5" stroke-linecap="round"/>
<path d="M16 24.1276L20.1713 27.9839C20.6119 28.3912 21.3095 28.3215 21.6608 27.8351L27.5 19.75" stroke="white" stroke-width="7" stroke-linecap="round"/>
<path d="M16 24.1276L20.1713 27.9839C20.6119 28.3912 21.3095 28.3215 21.6608 27.8351L27.5 19.75" stroke="black" stroke-width="4" stroke-linecap="round"/>
</svg>
