<svg width="31" height="32" viewBox="0 0 31 32" fill="none" xmlns="http://www.w3.org/2000/svg">
<path d="M13 2.75C7.47715 2.75 3 7.06056 3 12.3779C3 14.9872 4.07809 17.354 5.8288 19.0881C6.12286 19.3793 6.24112 19.8113 6.10139 20.2009L4.59087 24.4124C4.35721 25.0639 4.84005 25.75 5.53216 25.75H9.66667H16.3333H20.0288C20.6867 25.75 21.1654 25.1256 20.9945 24.4902L19.8299 20.1612C19.7301 19.7902 19.855 19.3979 20.1296 19.1291C21.9048 17.3915 23 15.0078 23 12.3779C23 7.06056 18.5228 2.75 13 2.75Z" fill="white"/>
<path d="M9.66667 25.75H5.53216C4.84005 25.75 4.35721 25.0639 4.59087 24.4124L6.10139 20.2009C6.24112 19.8113 6.12286 19.3793 5.8288 19.0881C4.07809 17.354 3 14.9872 3 12.3779C3 7.06056 7.47715 2.75 13 2.75C18.5228 2.75 23 7.06056 23 12.3779C23 15.0078 21.9048 17.3915 20.1296 19.1291C19.855 19.3979 19.7301 19.7902 19.8299 20.1612L20.9945 24.4902C21.1654 25.1256 20.6867 25.75 20.0288 25.75H16.3333M9.66667 25.75L10.7778 22.0058M9.66667 25.75H16.3333M16.3333 25.75L15.2222 22.0058M9.66667 10.2384V13.9826M16.3333 10.2384V13.9826" stroke="white" stroke-width="5.5" stroke-linecap="round"/>
<path d="M9.66667 25.75H5.53216C4.84005 25.75 4.35721 25.0639 4.59087 24.4124L6.10139 20.2009C6.24112 19.8113 6.12286 19.3793 5.8288 19.0881C4.07809 17.354 3 14.9872 3 12.3779C3 7.06056 7.47715 2.75 13 2.75C18.5228 2.75 23 7.06056 23 12.3779C23 15.0078 21.9048 17.3915 20.1296 19.1291C19.855 19.3979 19.7301 19.7902 19.8299 20.1612L20.9945 24.4902C21.1654 25.1256 20.6867 25.75 20.0288 25.75H16.3333M9.66667 25.75L10.7778 22.0058M9.66667 25.75H16.3333M16.3333 25.75L15.2222 22.0058M9.66667 10.2384V13.9826M16.3333 10.2384V13.9826" stroke="black" stroke-width="2.5" stroke-linecap="round"/>
<path d="M17.2007 26.75V19.75C17.2007 19.1977 17.6484 18.75 18.2007 18.75H26.2007C26.753 18.75 27.2007 19.1977 27.2007 19.75V26.75" stroke="white" stroke-width="7" stroke-linecap="round"/>
<path d="M24.044 23.8311C25.2281 23.4274 26.4499 23.4114 27.4787 23.7464C28.5079 24.0817 29.3894 24.7899 29.75 25.8476C30.1106 26.9052 29.8454 28.0044 29.2354 28.8986C28.6255 29.7924 27.6484 30.5261 26.4643 30.9298C25.2802 31.3335 24.0583 31.3495 23.0295 31.0145C22.0003 30.6792 21.1189 29.971 20.7582 28.9133C20.3976 27.8557 20.6629 26.7565 21.2729 25.8623C21.8828 24.9685 22.8599 24.2348 24.044 23.8311Z" fill="black" stroke="white" stroke-width="1.5"/>
<path d="M13.844 23.8311C15.0281 23.4274 16.2499 23.4114 17.2788 23.7464C18.308 24.0817 19.1894 24.7899 19.55 25.8476C19.9106 26.9052 19.6454 28.0044 19.0354 28.8986C18.4255 29.7924 17.4484 30.5261 16.2643 30.9298C15.0802 31.3335 13.8584 31.3495 12.8295 31.0145C11.8004 30.6792 10.9189 29.971 10.5583 28.9133C10.1977 27.8557 10.4629 26.7565 11.0729 25.8623C11.6828 24.9685 12.6599 24.2348 13.844 23.8311Z" fill="black" stroke="white" stroke-width="1.5"/>
<rect x="15" y="17.75" width="12" height="10" fill="white"/>
<path d="M17.2007 26.75V19.75C17.2007 19.1977 17.6484 18.75 18.2007 18.75H26.2007C26.753 18.75 27.2007 19.1977 27.2007 19.75V26.75" stroke="black" stroke-width="4" stroke-linecap="round"/>
<path d="M24.4473 25.0142C25.4002 24.6893 26.3437 24.6914 27.0916 24.935C27.8393 25.1786 28.3617 25.6492 28.5669 26.251C28.772 26.8527 28.646 27.5445 28.2028 28.1941C27.7594 28.8438 27.0137 29.4218 26.0609 29.7467C25.108 30.0716 24.1646 30.0695 23.4167 29.8259C22.6689 29.5823 22.1465 29.1117 21.9414 28.5099C21.7362 27.9082 21.8623 27.2164 22.3055 26.5668C22.7488 25.9171 23.4945 25.3391 24.4473 25.0142Z" fill="black" stroke="black"/>
<path d="M14.4473 25.0142C15.4002 24.6893 16.3437 24.6914 17.0916 24.935C17.8393 25.1786 18.3617 25.6492 18.5669 26.251C18.772 26.8527 18.646 27.5445 18.2028 28.1941C17.7594 28.8438 17.0137 29.4218 16.0609 29.7467C15.108 30.0716 14.1646 30.0695 13.4167 29.8259C12.6689 29.5823 12.1465 29.1117 11.9414 28.5099C11.7362 27.9082 11.8623 27.2164 12.3055 26.5668C12.7488 25.9171 13.4945 25.3391 14.4473 25.0142Z" fill="black" stroke="black"/>
</svg>
