<svg width="32" height="32" viewBox="0 0 32 32" fill="none" xmlns="http://www.w3.org/2000/svg">
<path d="M18.5 18V7C18.5 6.44772 18.0523 6 17.5 6H14.5C13.9477 6 13.5 6.44772 13.5 7V18M18.5 18H22C22.5523 18 23 18.4477 23 19V20.245C23 20.4123 23.042 20.577 23.1221 20.7239L25.1934 24.5211C25.5568 25.1875 25.0745 26 24.3155 26H21M18.5 18H13.5M13.5 18H10C9.44772 18 9 18.4477 9 19V20.245C9 20.4123 8.95802 20.577 8.8779 20.7239L6.80665 24.5211C6.44317 25.1875 6.92548 26 7.68454 26H11M11 26L12.5 22.5M11 26H16M21 26L19.5 22.5M21 26H16M16 26V22.5" stroke="black" stroke-width="2.5" stroke-linecap="round"/>
</svg>
