<svg width="32" height="32" viewBox="0 0 32 32" fill="none" xmlns="http://www.w3.org/2000/svg">
<path d="M12.6667 27H8.53216C7.84005 27 7.35721 26.3139 7.59087 25.6624L9.10139 21.4509C9.24112 21.0613 9.12286 20.6293 8.8288 20.3381C7.07809 18.604 6 16.2372 6 13.6279C6 8.31056 10.4772 4 16 4C21.5228 4 26 8.31056 26 13.6279C26 16.2578 24.9048 18.6415 23.1296 20.3791C22.855 20.6479 22.7301 21.0402 22.8299 21.4112L23.9945 25.7402C24.1654 26.3756 23.6867 27 23.0288 27H19.3333M12.6667 27L13.7778 23.2558M12.6667 27H19.3333M19.3333 27L18.2222 23.2558M12.6667 11.4884V15.2326M19.3333 11.4884V15.2326" stroke="black" stroke-width="2.5" stroke-linecap="round"/>
</svg>
