<svg width="32" height="32" viewBox="0 0 32 32" fill="none" xmlns="http://www.w3.org/2000/svg">
<path d="M20 19L22.5 21.5M25 24L22.5 21.5M22.5 21.5L20 24M22.5 21.5L25 19" stroke="black" stroke-width="2.5" stroke-linecap="round"/>
<path d="M7 8C7 7.44772 7.44772 7 8 7H14.5C15.0523 7 15.5 7.44772 15.5 8V13C15.5 13.5523 15.0523 14 14.5 14H8C7.44772 14 7 13.5523 7 13V8Z" stroke="black" stroke-width="2.5"/>
<path d="M7 19C7 18.4477 7.44772 18 8 18H14.5C15.0523 18 15.5 18.4477 15.5 19V24C15.5 24.5523 15.0523 25 14.5 25H8C7.44772 25 7 24.5523 7 24V19Z" stroke="black" stroke-width="2.5"/>
<path d="M19.5 10L21.2929 11.7929C21.6834 12.1834 22.3166 12.1834 22.7071 11.7929L25.5 9" stroke="black" stroke-width="2.5" stroke-linecap="round"/>
</svg>
