<svg width="32" height="32" viewBox="0 0 32 32" fill="none" xmlns="http://www.w3.org/2000/svg">
<path d="M16 26.25V27.5M23.2729 23.2729L24.2501 24.25M8.72695 8.72703L7.75 7.75M16 5.75V4.5M23.2729 8.72703L24.2501 7.75M26.25 16H27.5M5.75 16H4.5M8.72695 23.2729L7.75 24.25M22.75 16C22.75 19.7279 19.7279 22.75 16 22.75C12.2721 22.75 9.25 19.7279 9.25 16C9.25 12.2721 12.2721 9.25 16 9.25C19.7279 9.25 22.75 12.2721 22.75 16ZM20.7729 11.227C23.4089 13.8631 23.4089 18.1369 20.7729 20.773C18.1369 23.409 13.863 23.409 11.227 20.773C8.59091 18.1369 8.59091 13.8631 11.227 11.227C13.863 8.59099 18.1369 8.59099 20.7729 11.227Z" stroke="black" stroke-width="2.5" stroke-linecap="round"/>
</svg>
