<svg width="32" height="32" viewBox="0 0 32 32" fill="none" xmlns="http://www.w3.org/2000/svg">
<path d="M9.5 21.5L9.87735 24.1414C9.94772 24.6341 10.3696 25 10.8673 25H13M9.5 21.5L23.5 14.5M9.5 21.5L8.75 16.25M23.5 14.5L23.8369 12.1414C23.923 11.539 23.4555 11 22.847 11H20M23.5 14.5L22.6875 20.1875M8.75 16.25L8.16306 12.1414C8.077 11.539 8.54446 11 9.15301 11H12M8.75 16.25L20 11M20 11H12M20 11L19.1894 7.75746C19.0781 7.3123 18.6781 7 18.2192 7H13.7808C13.3219 7 12.9219 7.3123 12.8106 7.75746L12 11M13 25H21.1327C21.6304 25 22.0523 24.6341 22.1227 24.1414L22.6875 20.1875M13 25L22.6875 20.1875" stroke="black" stroke-width="2.5" stroke-linecap="round"/>
</svg>
