<svg width="32" height="32" viewBox="0 0 32 32" fill="none" xmlns="http://www.w3.org/2000/svg">
<path d="M20 11H22.847C23.4555 11 23.923 11.539 23.8369 12.1414L22.1227 24.1414C22.0523 24.6341 21.6304 25 21.1327 25H10.8673C10.3696 25 9.94772 24.6341 9.87735 24.1414L8.16306 12.1414C8.077 11.539 8.54446 11 9.15301 11H12M20 11H12M20 11L19.1894 7.75746C19.0781 7.3123 18.6781 7 18.2192 7H13.7808C13.3219 7 12.9219 7.3123 12.8106 7.75746L12 11M18 21.5L19 15M14 21.5L13 15" stroke="black" stroke-width="2.5" stroke-linecap="round"/>
</svg>
